# xmcd
#
# Track frame offsets:
#	180
#	21095
#	40439
#	61809
#	76370
#	102818
#	117992
#	132205
#	152067
#	166383
#
# Disc length: 2483 seconds
#
# Revision: 1
# Processed by: cddbd v1.4PL0 Copyright (c) Steve Scherf et al.
# Submitted via: audiograbber 1.82.00
#
DISCID=7909b10a
DTITLE=John Keaton - The Heart Of The Little Town
DYEAR=1900
DGENRE=country
TTITLE0=Heart Of The Little Town
TTITLE1=Morning and Nite
TTITLE2=Just 2 Hearts
TTITLE3=Why Ya Teasin' Me
TTITLE4=Gift Of Love (Long Version)
TTITLE5=Love Jones
TTITLE6=Swing Low
TTITLE7=Silly Pride
TTITLE8=634-5789
TTITLE9=Tribute To Momma
EXTD=
EXTT0=
EXTT1=
EXTT2=
EXTT3=
EXTT4=
EXTT5=
EXTT6=
EXTT7=
EXTT8=
EXTT9=
PLAYORDER=
